<svg viewBox="0 0 123 35" fill="none" xmlns="http://www.w3.org/2000/svg">
<path fill-rule="evenodd" clip-rule="evenodd" d="M10.3928 17.4746L21.058 27.8248L27.7894 21.2934C28.9781 20.1395 30.9067 20.1398 32.0954 21.2934C33.2843 22.4469 33.2845 24.3178 32.0954 25.4713L23.2111 34.0918C22.0276 35.24 20.0777 35.2296 18.9053 34.0918L6.08965 21.6551L6.08944 29.0488C6.08944 30.6719 4.71752 32.0034 3.0443 32.0034C1.36309 32.0034 -1.52588e-05 30.6804 -1.52588e-05 29.0491V5.90067C-1.52588e-05 4.26948 1.36308 2.94636 3.0443 2.94636C4.72582 2.94636 6.08944 4.2699 6.08944 5.90067V13.2943L18.9053 0.857311C20.0777 -0.280353 22.0275 -0.29085 23.2111 0.857311L32.0954 9.47785C33.2845 10.6313 33.2843 12.5023 32.0954 13.6557C30.9066 14.8092 28.9781 14.8096 27.7893 13.6557L21.058 7.12447L10.3928 17.4747L10.3928 17.4746ZM21.0626 14.5172C22.7454 14.5172 24.1103 15.8416 24.1103 17.4743C24.1103 19.1074 22.7454 20.4318 21.0626 20.4318C19.3796 20.4318 18.0147 19.1074 18.0147 17.4743C18.0147 15.8416 19.3796 14.5172 21.0626 14.5172Z" fill="white"/>
<path fill-rule="evenodd" clip-rule="evenodd" d="M45.4581 0C44.6104 0 43.9069 0.682966 43.9069 1.50513L43.9074 19.657C43.9074 20.4821 44.6079 21.1626 45.4586 21.1626C46.3092 21.1626 47.0097 20.4825 47.0097 19.657L47.0092 1.50503C47.0092 0.680727 46.3076 3.94297e-06 45.4581 3.94297e-06V0ZM57.5121 0.438394C56.913 -0.142872 55.9179 -0.14338 55.3186 0.438088L48.3794 7.17186C47.8644 7.6717 47.9332 8.44862 48.1621 8.8324L55.0681 20.4102C55.4856 21.11 56.4602 21.377 57.188 20.9614C57.9165 20.5454 58.182 19.6182 57.7584 18.9081L51.4935 8.40663L57.5121 2.56657C58.1137 1.98276 58.1138 1.02221 57.5121 0.438392V0.438394Z" fill="white"/>
<path fill-rule="evenodd" clip-rule="evenodd" d="M61.7466 6.11548C60.8991 6.11548 60.1954 6.79855 60.1954 7.6202L60.1949 15.5603C60.1948 18.6524 62.782 21.1632 65.969 21.163L70.8327 21.1625C71.6775 21.1624 72.3833 20.4783 72.3833 19.6577L72.3834 7.62022C72.3834 6.79245 71.6851 6.11549 70.8323 6.11549C69.9849 6.11549 69.2813 6.79815 69.2813 7.62022V18.1525L65.9691 18.1529C64.4934 18.1531 63.2969 16.9921 63.297 15.5602L63.2975 7.62023C63.2976 6.79623 62.5959 6.11551 61.7466 6.11551V6.11548Z" fill="white"/>
<path fill-rule="evenodd" clip-rule="evenodd" d="M88.6027 1.50524C88.6027 0.682864 87.8991 0 87.0516 0H81.1663C77.978 0 75.3922 2.50931 75.3922 5.60263V15.5601C75.3922 18.6534 77.978 21.1626 81.1663 21.1626H87.0518C87.901 21.1626 88.6027 20.4815 88.6027 19.6576C88.6027 18.8353 87.8988 18.1525 87.0516 18.1525L81.1663 18.1526C79.6912 18.1526 78.4943 16.9916 78.4943 15.5599V5.60273C78.4943 4.17107 79.6909 3.01007 81.1663 3.01007L87.0518 3.01028C87.901 3.01028 88.6027 2.32924 88.6027 1.50524L88.6027 1.50524Z" fill="white"/>
<path fill-rule="evenodd" clip-rule="evenodd" d="M106.717 0C105.866 0 105.166 0.679603 105.166 1.50524C105.166 2.33066 105.866 3.01027 106.717 3.01027C107.567 3.01027 108.268 2.33056 108.268 1.50524C108.268 0.679808 107.567 0 106.717 0V0ZM106.717 6.11602C105.866 6.11602 105.166 6.79542 105.166 7.62085V19.6576C105.166 20.4831 105.866 21.1627 106.717 21.1627C107.567 21.1627 108.268 20.4829 108.268 19.6576V7.62085C108.268 6.79675 107.566 6.11602 106.717 6.11602Z" fill="white"/>
<path fill-rule="evenodd" clip-rule="evenodd" d="M121.395 21.1622C122.243 21.1622 122.947 20.4793 122.947 19.6574L122.947 11.7177C122.947 8.62452 120.361 6.11492 117.173 6.11511L112.309 6.11552C111.465 6.11562 110.759 6.79981 110.759 7.62035V19.6573C110.759 20.4851 111.457 21.1622 112.31 21.1622C113.157 21.1622 113.861 20.4796 113.861 19.6573V9.12568L117.173 9.12517C118.648 9.12486 119.845 10.2862 119.845 11.7178L119.845 19.6573C119.844 20.4813 120.546 21.1622 121.395 21.1622V21.1622Z" fill="white"/>
<path fill-rule="evenodd" clip-rule="evenodd" d="M90.8342 11.7173C90.8342 8.63451 93.4034 6.11521 96.5754 6.11511L96.9615 6.11542C100.122 6.11797 102.675 8.64377 102.675 11.7173V15.5605C102.675 18.6341 100.122 21.1597 96.9615 21.1623L96.5754 21.1627C93.4025 21.1652 90.8342 18.6432 90.8342 15.5604V11.7173V11.7173ZM99.5728 11.7174C99.5728 10.2876 98.379 9.12477 96.9066 9.12477H96.6021C95.1298 9.12477 93.9363 10.2879 93.9363 11.7174V15.5604C93.9363 16.9897 95.1296 18.1529 96.6021 18.1529H96.9066C98.3793 18.1529 99.5728 16.9902 99.5728 15.5604V11.7174Z" fill="white"/>
<path d="M43.907 25.9296H47.8769V26.3055H46.0855V32.5063H45.6982V26.3055H43.907V25.9296H43.907ZM51.169 29.218C51.169 28.8734 51.0737 28.6073 50.8834 28.4193C50.6929 28.2315 50.4331 28.1376 50.1038 28.1376C49.794 28.1376 49.539 28.2315 49.3389 28.4193C49.1389 28.6073 49.0388 28.8734 49.0388 29.218V32.5063H48.6514V25.9296H49.0388V28.2973C49.1678 28.1594 49.326 28.0358 49.5133 27.9261C49.7003 27.8166 49.8973 27.7617 50.1038 27.7617C50.3104 27.7617 50.5024 27.7962 50.68 27.8651C50.8575 27.934 51.0108 28.0326 51.1399 28.161C51.269 28.2894 51.3706 28.4429 51.4448 28.6213C51.5192 28.7999 51.5563 28.9988 51.5563 29.218V32.5063H51.169V29.218L51.169 29.218ZM53.4928 30.1574H54.1705C54.4804 30.1574 54.7354 30.0636 54.9356 29.8757C55.1356 29.6877 55.2357 29.4529 55.2357 29.171C55.2357 28.8328 55.1356 28.576 54.9356 28.4006C54.7354 28.2252 54.4804 28.1376 54.1705 28.1376C53.8414 28.1376 53.5816 28.2252 53.3911 28.4006C53.2006 28.576 53.1055 28.8328 53.1055 29.171V31.097C53.1055 31.4415 53.2006 31.7077 53.3911 31.8956C53.5816 32.0834 53.8414 32.1775 54.1705 32.1775C54.5321 32.1775 54.8258 32.0397 55.0517 31.7642L55.3616 31.9613C55.2325 32.143 55.0614 32.2871 54.8484 32.3935C54.6354 32.5 54.4094 32.5532 54.1705 32.5532C53.964 32.5532 53.772 32.5189 53.5945 32.45C53.417 32.3811 53.2636 32.284 53.1345 32.1587C53.0055 32.0334 52.9037 31.8799 52.8295 31.6982C52.7553 31.5167 52.7183 31.3162 52.7183 31.097V29.218C52.7183 29.005 52.7553 28.8093 52.8295 28.6308C52.9037 28.4522 53.0055 28.2989 53.1345 28.1704C53.2636 28.042 53.417 27.9418 53.5945 27.8698C53.772 27.7977 53.964 27.7617 54.1705 27.7617C54.3707 27.7617 54.5578 27.7977 54.7322 27.8698C54.9065 27.9418 55.0598 28.042 55.1921 28.1704C55.3245 28.2989 55.4293 28.4522 55.5067 28.6308C55.5842 28.8093 55.623 29.005 55.623 29.218C55.623 29.3996 55.5842 29.5702 55.5067 29.73C55.4293 29.8897 55.3245 30.0291 55.1921 30.1481C55.0597 30.2671 54.9065 30.361 54.7322 30.4299C54.5578 30.4988 54.3707 30.5333 54.1705 30.5333H53.4928V30.1574V30.1574ZM60.968 26.3055V32.5063H60.5806V25.9296H62.7592C62.9787 25.9296 63.1853 25.9704 63.379 26.0518C63.5726 26.1332 63.7421 26.2444 63.8873 26.3853C64.0325 26.5263 64.1472 26.6907 64.231 26.8785C64.3149 27.0666 64.3569 27.2826 64.3569 27.5269C64.3569 27.7085 64.3149 27.8933 64.231 28.0811C64.1472 28.269 64.0325 28.4335 63.8873 28.5744C63.7421 28.7153 63.5726 28.8266 63.379 28.908C63.1853 28.9894 62.9787 29.0301 62.7592 29.0301H61.3553V28.6542H62.7592C62.9271 28.6542 63.0836 28.6229 63.2289 28.5603C63.3741 28.4977 63.5016 28.4131 63.6113 28.3067C63.7211 28.2001 63.8082 28.0765 63.8728 27.9355C63.9373 27.7946 63.9696 27.6584 63.9696 27.5269C63.9696 27.3326 63.9373 27.1651 63.8728 27.0242C63.8082 26.8832 63.7211 26.7596 63.6113 26.6531C63.5016 26.5465 63.3741 26.462 63.2289 26.3994C63.0836 26.3368 62.9271 26.3055 62.7592 26.3055H60.968L60.968 26.3055ZM66.0514 30.1574H66.7292C67.039 30.1574 67.294 30.0636 67.4942 29.8757C67.6943 29.6877 67.7944 29.4529 67.7944 29.171C67.7944 28.8328 67.6943 28.576 67.4942 28.4006C67.294 28.2252 67.039 28.1376 66.7292 28.1376C66.4 28.1376 66.1402 28.2252 65.9497 28.4006C65.7592 28.576 65.6642 28.8328 65.6642 29.171V31.097C65.6642 31.4415 65.7592 31.7077 65.9497 31.8956C66.1402 32.0834 66.4 32.1775 66.7292 32.1775C67.0907 32.1775 67.3843 32.0397 67.6104 31.7642L67.9202 31.9613C67.7911 32.143 67.62 32.2871 67.407 32.3935C67.1939 32.5 66.968 32.5532 66.7292 32.5532C66.5226 32.5532 66.3305 32.5189 66.153 32.45C65.9756 32.3811 65.8223 32.284 65.6932 32.1587C65.5641 32.0334 65.4623 31.8799 65.3882 31.6982C65.3139 31.5167 65.2768 31.3162 65.2768 31.097V29.218C65.2768 29.005 65.3139 28.8093 65.3882 28.6308C65.4623 28.4522 65.5641 28.2989 65.6932 28.1704C65.8223 28.042 65.9756 27.9418 66.153 27.8698C66.3305 27.7977 66.5226 27.7617 66.7292 27.7617C66.9294 27.7617 67.1164 27.7977 67.2908 27.8698C67.4651 27.9418 67.6184 28.042 67.7507 28.1704C67.8831 28.2989 67.9879 28.4522 68.0654 28.6308C68.1428 28.8093 68.1816 29.005 68.1816 29.218C68.1816 29.3996 68.1428 29.5702 68.0654 29.73C67.9879 29.8897 67.8831 30.0291 67.7507 30.1481C67.6184 30.2671 67.4651 30.361 67.2908 30.4299C67.1164 30.4988 66.9294 30.5333 66.7292 30.5333H66.0514V30.1574V30.1574ZM70.6701 32.5532C70.4636 32.5532 70.2715 32.5172 70.0939 32.4453C69.9166 32.3732 69.7632 32.273 69.634 32.1447C69.505 32.0162 69.4033 31.8627 69.3291 31.6843C69.2548 31.5057 69.2177 31.3101 69.2177 31.097V29.218C69.2177 28.9988 69.2548 28.7999 69.3291 28.6213C69.4033 28.4429 69.505 28.2894 69.634 28.161C69.7632 28.0326 69.9166 27.934 70.0939 27.8651C70.2715 27.7962 70.4636 27.7618 70.6701 27.7618C70.8703 27.7618 71.0574 27.7962 71.2317 27.8651C71.406 27.934 71.5593 28.0326 71.6917 28.161C71.824 28.2894 71.9288 28.4429 72.0063 28.6213C72.0837 28.7999 72.1226 28.9988 72.1226 29.218V31.097C72.1226 31.3101 72.0837 31.5057 72.0063 31.6843C71.9288 31.8627 71.824 32.0162 71.6917 32.1447C71.5593 32.273 71.406 32.3733 71.2317 32.4453C71.0574 32.5172 70.8703 32.5532 70.6701 32.5532ZM69.6051 31.097C69.6051 31.4353 69.7002 31.6999 69.8906 31.8909C70.0811 32.082 70.3408 32.1775 70.6701 32.1775C70.9799 32.1775 71.2349 32.082 71.4351 31.8909C71.6352 31.6999 71.7352 31.4353 71.7352 31.097V29.218C71.7352 28.8734 71.6352 28.6074 71.4351 28.4193C71.2349 28.2315 70.9799 28.1376 70.6701 28.1376C70.3408 28.1376 70.0811 28.2315 69.8906 28.4193C69.7002 28.6074 69.6051 28.8734 69.6051 29.218V31.097ZM74.1075 31.9331C74.1978 31.9959 74.3011 32.0444 74.4173 32.0788C74.5336 32.1133 74.6561 32.1305 74.7852 32.1305C75.095 32.1305 75.35 32.0366 75.5502 31.8486C75.7503 31.6607 75.8504 31.3945 75.8504 31.05V29.218C75.8504 28.8797 75.7551 28.6152 75.5648 28.4241C75.3743 28.233 75.1145 28.1376 74.7852 28.1376C74.4754 28.1376 74.2204 28.233 74.0203 28.4241C73.8203 28.6152 73.7202 28.8797 73.7202 29.218V34.9491H73.3329V27.8087H73.7202V28.3067C73.8493 28.1689 74.0074 28.0436 74.1947 27.9308C74.3818 27.8181 74.5787 27.7618 74.7852 27.7618C74.9919 27.7618 75.1839 27.7977 75.3614 27.8698C75.5389 27.9418 75.6922 28.042 75.8213 28.1704C75.9505 28.2989 76.052 28.4523 76.1263 28.6308C76.2006 28.8093 76.2377 29.005 76.2377 29.218V31.05C76.2377 31.2693 76.1989 31.4697 76.1215 31.6514C76.044 31.8331 75.9391 31.9864 75.8069 32.1117C75.6745 32.2369 75.5211 32.334 75.3469 32.4029C75.1727 32.4718 74.9854 32.5063 74.7852 32.5063C74.5399 32.5063 74.314 32.4531 74.1075 32.3466V31.9331ZM77.4481 25.9296H77.8354V31.1441C77.8354 31.3193 77.8371 31.4666 77.8402 31.5856C77.8435 31.7046 77.8564 31.8079 77.879 31.8956C77.9016 31.9834 77.9386 32.0522 77.9903 32.1023C78.042 32.1524 78.1194 32.1775 78.2227 32.1775V32.5532C78.042 32.5532 77.9 32.5172 77.7966 32.4453C77.6934 32.3732 77.616 32.2761 77.5642 32.1541C77.5127 32.0319 77.4803 31.8878 77.4674 31.7218C77.4546 31.5558 77.4481 31.3633 77.4481 31.1441V25.9296ZM80.0141 30.1574H80.6918C81.0016 30.1574 81.2566 30.0636 81.4568 29.8757C81.6569 29.6878 81.757 29.4529 81.757 29.171C81.757 28.8328 81.6569 28.576 81.4568 28.4006C81.2566 28.2252 81.0016 28.1376 80.6918 28.1376C80.3626 28.1376 80.1028 28.2252 79.9123 28.4006C79.7219 28.576 79.6268 28.8328 79.6268 29.171V31.097C79.6268 31.4415 79.7219 31.7077 79.9123 31.8956C80.1028 32.0834 80.3626 32.1775 80.6918 32.1775C81.0533 32.1775 81.3471 32.0397 81.573 31.7642L81.8828 31.9614C81.7537 32.1431 81.5826 32.2872 81.3696 32.3935C81.1565 32.5 80.9306 32.5532 80.6918 32.5532C80.4852 32.5532 80.2931 32.5189 80.1157 32.45C79.9382 32.3811 79.7849 32.284 79.6558 32.1587C79.5267 32.0334 79.425 31.8799 79.3508 31.6982C79.2765 31.5167 79.2394 31.3162 79.2394 31.097V29.218C79.2394 29.005 79.2765 28.8093 79.3508 28.6308C79.425 28.4523 79.5267 28.2989 79.6558 28.1704C79.7849 28.042 79.9382 27.9418 80.1157 27.8698C80.2931 27.7977 80.4852 27.7618 80.6918 27.7618C80.892 27.7618 81.0791 27.7977 81.2534 27.8698C81.4277 27.9418 81.581 28.042 81.7133 28.1704C81.8457 28.2989 81.9505 28.4523 82.028 28.6308C82.1054 28.8093 82.1443 29.005 82.1443 29.218C82.1443 29.3996 82.1054 29.5703 82.028 29.7301C81.9505 29.8897 81.8457 30.0291 81.7133 30.1482C81.581 30.2671 81.4277 30.361 81.2534 30.4299C81.0791 30.4988 80.892 30.5334 80.6918 30.5334H80.0141V30.1574V30.1574ZM83.2965 25.8639C83.2579 25.8137 83.2353 25.7575 83.2288 25.6947C83.2224 25.6321 83.232 25.5742 83.2579 25.521C83.2836 25.4677 83.3224 25.4223 83.374 25.3847C83.4256 25.3471 83.487 25.3284 83.558 25.3284C83.6484 25.3284 83.7275 25.3613 83.7953 25.427C83.863 25.4927 83.8968 25.5695 83.8968 25.6572C83.9033 25.8701 83.8663 26.033 83.7855 26.1457C83.7048 26.2585 83.5837 26.3744 83.4224 26.4933H83.2288C83.3643 26.3494 83.4273 26.2319 83.4176 26.1411C83.4079 26.0503 83.3675 25.9578 83.2965 25.8639ZM86.0465 29.7911C86.2401 29.8161 86.4225 29.8662 86.5936 29.9414C86.7647 30.0165 86.9131 30.1106 87.0389 30.2233C87.1648 30.336 87.2632 30.4659 87.3342 30.6133C87.4053 30.7604 87.4407 30.9217 87.4407 31.097C87.4407 31.3101 87.4021 31.5057 87.3247 31.6843C87.2472 31.8627 87.1422 32.0162 87.0099 32.1447C86.8776 32.273 86.7242 32.3732 86.5499 32.4453C86.3757 32.5172 86.1885 32.5532 85.9883 32.5532C85.7818 32.5532 85.5897 32.5157 85.4123 32.4406C85.2347 32.3654 85.0815 32.2636 84.9523 32.1352C84.8232 32.0068 84.7214 31.858 84.6473 31.689C84.573 31.5198 84.536 31.3382 84.536 31.1441H84.9233C84.9233 31.4447 85.0186 31.6921 85.2089 31.8862C85.3994 32.0805 85.6592 32.1775 85.9883 32.1775C86.2983 32.1775 86.5532 32.082 86.7533 31.8909C86.9534 31.6999 87.0535 31.4353 87.0535 31.097C87.0535 30.8278 86.9534 30.6163 86.7533 30.4629C86.5532 30.3095 86.2983 30.2077 85.9883 30.1574C85.8141 30.1325 85.6511 30.087 85.4995 30.0213C85.3477 29.9555 85.2154 29.874 85.1025 29.7769C84.9895 29.6799 84.899 29.5687 84.8313 29.4435C84.7636 29.3181 84.7295 29.1804 84.7295 29.0301C84.7295 28.8422 84.7619 28.6699 84.8265 28.5134C84.8909 28.3568 84.9814 28.2237 85.0975 28.114C85.2137 28.0044 85.3477 27.9184 85.4995 27.8556C85.6511 27.793 85.8141 27.7617 85.9883 27.7617C86.2595 27.7617 86.5047 27.8259 86.7242 27.9543C86.9436 28.0826 87.1147 28.2503 87.2375 28.457L86.9277 28.6542C86.8436 28.4977 86.721 28.3725 86.5596 28.2785C86.3983 28.1844 86.2078 28.1376 85.9883 28.1376C85.7431 28.1376 85.5365 28.219 85.3686 28.3818C85.2008 28.5446 85.1169 28.7608 85.1169 29.0301C85.1169 29.1303 85.1427 29.2228 85.1944 29.3072C85.246 29.3917 85.3155 29.4669 85.4025 29.5328C85.4897 29.5985 85.5897 29.6533 85.7027 29.6971C85.8157 29.7409 85.9303 29.7723 86.0465 29.7911V29.7911ZM92.3306 25.9296H95.6227V26.3055H92.718V28.6542H94.6544V29.0301H92.718V32.1305H95.6227V32.5064H92.3306V25.9296V25.9296ZM97.6077 30.6272L96.7363 32.5063H96.3006L97.385 30.1574L96.3006 27.8087H96.7363L97.6077 29.6877L98.4792 27.8087H98.9149L97.8207 30.1574L98.9149 32.5063H98.4792L97.6077 30.6272ZM100.125 31.097C100.125 31.4353 100.22 31.6999 100.411 31.8909C100.601 32.082 100.861 32.1775 101.19 32.1775C101.358 32.1775 101.523 32.1447 101.684 32.0788C101.846 32.013 101.971 31.9082 102.062 31.7642L102.372 31.9613C102.243 32.1368 102.073 32.2793 101.863 32.3889C101.654 32.4985 101.429 32.5532 101.19 32.5532C100.984 32.5532 100.792 32.5172 100.614 32.4453C100.437 32.3732 100.283 32.273 100.154 32.1447C100.025 32.0162 99.9235 31.8627 99.8493 31.6843C99.7751 31.5057 99.738 31.3101 99.738 31.097V29.218C99.738 28.9988 99.7751 28.7999 99.8493 28.6213C99.9235 28.4429 100.025 28.2894 100.154 28.161C100.283 28.0326 100.437 27.934 100.614 27.8651C100.792 27.7962 100.984 27.7617 101.19 27.7617C101.423 27.7617 101.645 27.8134 101.859 27.9167C102.071 28.0201 102.246 28.1719 102.381 28.3725L102.071 28.5509C102.033 28.482 101.981 28.421 101.917 28.3678C101.852 28.3145 101.779 28.2707 101.699 28.2361C101.618 28.2018 101.533 28.1767 101.442 28.161C101.352 28.1454 101.268 28.1376 101.19 28.1376C100.861 28.1376 100.601 28.2315 100.411 28.4193C100.22 28.6074 100.125 28.8734 100.125 29.218V31.097V31.097ZM105.983 29.218C105.983 28.8734 105.888 28.6074 105.698 28.4193C105.507 28.2315 105.247 28.1376 104.918 28.1376C104.608 28.1376 104.353 28.2315 104.153 28.4193C103.953 28.6074 103.853 28.8734 103.853 29.218V32.5063H103.466V25.9296H103.853V28.2973C103.982 28.1594 104.14 28.0358 104.328 27.9261C104.515 27.8166 104.712 27.7618 104.918 27.7618C105.125 27.7618 105.317 27.7962 105.494 27.8651C105.672 27.934 105.825 28.0326 105.954 28.161C106.083 28.2894 106.185 28.4429 106.259 28.6213C106.334 28.7999 106.371 28.9988 106.371 29.218V32.5063H105.983V29.218V29.218ZM109.634 30.3548C109.543 30.2921 109.44 30.2436 109.324 30.2092C109.208 30.1748 109.085 30.1574 108.956 30.1574C108.646 30.1574 108.391 30.2436 108.191 30.4159C107.991 30.5881 107.891 30.8152 107.891 31.097C107.891 31.4353 107.991 31.6999 108.191 31.8909C108.391 32.082 108.646 32.1775 108.956 32.1775C109.285 32.1775 109.545 32.082 109.735 31.8909C109.926 31.6999 110.021 31.4353 110.021 31.097V29.218C110.021 28.8734 109.926 28.6074 109.735 28.4193C109.545 28.2315 109.285 28.1376 108.956 28.1376C108.588 28.1376 108.291 28.2753 108.065 28.5509L107.755 28.3725C107.871 28.1844 108.041 28.0358 108.264 27.9261C108.486 27.8166 108.717 27.7617 108.956 27.7617C109.162 27.7617 109.355 27.7962 109.532 27.8651C109.71 27.934 109.863 28.0326 109.992 28.161C110.121 28.2894 110.223 28.4429 110.297 28.6213C110.371 28.7999 110.408 28.9988 110.408 29.218V31.097C110.408 31.2536 110.41 31.3945 110.413 31.5198C110.416 31.645 110.429 31.7532 110.452 31.844C110.474 31.9348 110.513 32.0053 110.568 32.0554C110.623 32.1054 110.699 32.1305 110.796 32.1305V32.5063C110.589 32.5063 110.434 32.461 110.331 32.3701C110.228 32.2793 110.153 32.1587 110.108 32.0083C109.979 32.1712 109.814 32.3028 109.614 32.4029C109.414 32.5032 109.195 32.5532 108.956 32.5532C108.756 32.5532 108.569 32.5172 108.394 32.4453C108.22 32.3732 108.067 32.273 107.934 32.1447C107.802 32.0162 107.697 31.8627 107.62 31.6843C107.542 31.5057 107.504 31.3101 107.504 31.097C107.504 30.9154 107.542 30.7447 107.62 30.585C107.697 30.4252 107.802 30.2859 107.934 30.1669C108.067 30.0479 108.22 29.9539 108.394 29.885C108.569 29.8162 108.756 29.7817 108.956 29.7817C109.201 29.7817 109.427 29.835 109.634 29.9414V30.3548V30.3548ZM111.764 27.8087H112.151V28.3067C112.28 28.1689 112.438 28.0436 112.626 27.9308C112.813 27.8181 113.01 27.7617 113.216 27.7617C113.423 27.7617 113.615 27.7977 113.792 27.8698C113.97 27.9418 114.123 28.042 114.252 28.1704C114.382 28.2989 114.483 28.4523 114.557 28.6308C114.632 28.8093 114.669 29.005 114.669 29.218V32.5063H114.281V29.218C114.281 28.8797 114.186 28.6152 113.996 28.4241C113.805 28.2329 113.546 28.1376 113.216 28.1376C112.906 28.1376 112.651 28.2329 112.451 28.4241C112.251 28.6152 112.151 28.8797 112.151 29.218V32.5063H111.764V27.8087V27.8087ZM117.332 31.7547C117.125 31.7547 116.933 31.7186 116.755 31.6467C116.578 31.5746 116.425 31.4743 116.296 31.3459C116.166 31.2176 116.065 31.0642 115.99 30.8856C115.916 30.7071 115.879 30.5114 115.879 30.2985V29.218C115.879 28.9988 115.916 28.7998 115.99 28.6213C116.065 28.4429 116.166 28.2894 116.296 28.161C116.425 28.0326 116.578 27.934 116.755 27.8651C116.933 27.7962 117.125 27.7617 117.332 27.7617C117.558 27.7617 117.771 27.8102 117.971 27.9074C118.171 28.0044 118.339 28.1344 118.474 28.2972C118.519 28.1344 118.595 28.0122 118.702 27.9308C118.808 27.8494 118.965 27.8087 119.171 27.8087V28.1844C119.068 28.1844 118.991 28.2096 118.939 28.2596C118.887 28.3097 118.85 28.3787 118.828 28.4663C118.805 28.554 118.792 28.6621 118.789 28.7905C118.786 28.919 118.784 29.0614 118.784 29.218V30.2985C118.784 30.5114 118.745 30.7071 118.668 30.8856C118.59 31.0642 118.485 31.2176 118.353 31.3459C118.221 31.4743 118.067 31.5746 117.893 31.6467C117.719 31.7186 117.532 31.7547 117.332 31.7547V31.7547ZM116.266 30.2985C116.266 30.6366 116.362 30.9013 116.552 31.0923C116.743 31.2834 117.002 31.379 117.332 31.379C117.641 31.379 117.896 31.2834 118.097 31.0923C118.297 30.9013 118.397 30.6366 118.397 30.2985V29.218C118.397 28.8734 118.297 28.6073 118.097 28.4193C117.896 28.2315 117.641 28.1376 117.332 28.1376C117.002 28.1376 116.743 28.2315 116.552 28.4193C116.362 28.6073 116.266 28.8734 116.266 29.218V30.2985ZM116.266 33.5398C116.266 33.8405 116.367 34.0878 116.567 34.282C116.767 34.4761 117.022 34.5732 117.332 34.5732C117.661 34.5732 117.921 34.4777 118.111 34.2867C118.301 34.0956 118.397 33.8311 118.397 33.4928C118.397 33.211 118.301 32.9761 118.111 32.7881C117.921 32.6003 117.661 32.5063 117.332 32.5063V32.1305C117.538 32.1305 117.73 32.168 117.908 32.2432C118.085 32.3183 118.238 32.4186 118.368 32.5439C118.497 32.6692 118.598 32.8133 118.673 32.9761C118.747 33.1389 118.784 33.3112 118.784 33.4928C118.784 33.7057 118.747 33.9015 118.673 34.08C118.598 34.2585 118.497 34.4119 118.368 34.5404C118.239 34.6687 118.085 34.769 117.908 34.8411C117.73 34.9131 117.538 34.9491 117.332 34.9491C117.131 34.9491 116.944 34.9115 116.77 34.8364C116.596 34.7612 116.442 34.6594 116.31 34.531C116.178 34.4026 116.073 34.2538 115.995 34.0847C115.918 33.9156 115.879 33.734 115.879 33.5398H116.266ZM120.817 30.1574H121.495C121.805 30.1574 122.06 30.0636 122.26 29.8756C122.46 29.6877 122.56 29.4528 122.56 29.171C122.56 28.8328 122.46 28.576 122.26 28.4006C122.06 28.2252 121.805 28.1376 121.495 28.1376C121.166 28.1376 120.906 28.2252 120.716 28.4006C120.525 28.576 120.43 28.8328 120.43 29.171V31.097C120.43 31.4415 120.525 31.7077 120.716 31.8956C120.906 32.0834 121.166 32.1775 121.495 32.1775C121.857 32.1775 122.15 32.0397 122.376 31.7641L122.686 31.9613C122.557 32.143 122.386 32.2871 122.173 32.3935C121.96 32.5 121.734 32.5532 121.495 32.5532C121.289 32.5532 121.096 32.5189 120.919 32.45C120.742 32.3811 120.588 32.284 120.459 32.1587C120.33 32.0334 120.228 31.8799 120.154 31.6982C120.08 31.5167 120.043 31.3162 120.043 31.097V29.218C120.043 29.005 120.08 28.8093 120.154 28.6308C120.228 28.4522 120.33 28.2989 120.459 28.1704C120.588 28.042 120.742 27.9418 120.919 27.8698C121.096 27.7977 121.289 27.7617 121.495 27.7617C121.695 27.7617 121.882 27.7977 122.057 27.8698C122.231 27.9418 122.384 28.042 122.517 28.1704C122.649 28.2989 122.754 28.4522 122.831 28.6308C122.909 28.8093 122.948 29.005 122.948 29.218C122.948 29.3995 122.909 29.5702 122.831 29.73C122.754 29.8897 122.649 30.0291 122.517 30.1481C122.384 30.2671 122.231 30.361 122.057 30.4299C121.882 30.4988 121.695 30.5333 121.495 30.5333H120.817V30.1574Z" fill="white" stroke="white" stroke-width="0.1"/>
</svg>
