<svg viewBox="0 0 185 72" fill="none" xmlns="http://www.w3.org/2000/svg">
<path d="M33.9481 6.88708L27.3674 0.313168C26.9495 -0.104223 26.2183 0.20882 26.2183 0.73056V33.4958C26.2183 33.9132 26.3228 34.3306 26.7406 34.748L34.4704 42.4697V8.13926C34.4704 7.61752 34.2615 7.20013 33.9481 6.88708Z" fill="white"/>
<path d="M62.0474 6.88684L55.4667 0.312929C55.0488 -0.20881 54.3176 0.104234 54.3176 0.625973V42.3651H34.4708L41.5739 49.4608C41.9917 49.8782 42.4095 50.0868 42.9318 50.0868H58.1825C58.6004 50.0868 59.0182 49.9825 59.436 49.5651L62.0474 46.9564C62.4653 46.539 62.5697 46.1216 62.5697 45.7042V8.13902C62.5697 7.61728 62.4653 7.19989 62.0474 6.88684Z" fill="white"/>
<path d="M8.2521 8.13904C8.2521 7.6173 8.14765 7.19991 7.72982 6.88687L1.14903 0.208606C0.626742 -0.208786 0 0.104258 0 0.730345V36.7303C0 37.3564 0.313371 37.8782 0.626742 38.2956L11.8036 49.4608C12.2215 49.8782 12.7438 50.0869 13.3705 50.0869H29.8747C30.2925 50.0869 30.7104 49.9825 31.1282 49.5651L33.8441 46.8521C34.2619 46.4347 34.3664 46.0173 34.3664 45.5999V42.4695H8.2521V8.13904Z" fill="white"/>
<path d="M154.074 6.88696L147.493 0.313046C147.076 -0.104345 146.344 0.208698 146.344 0.730438V33.4957C146.344 33.913 146.449 34.3304 146.867 34.7478L154.596 42.4696V8.13913C154.596 7.61739 154.388 7.2 154.074 6.88696Z" fill="white"/>
<path d="M182.173 6.88696L175.592 0.313052C175.174 -0.208688 174.443 0.104356 174.443 0.626095V42.3652H154.596L161.699 49.4609C162.117 49.8783 162.535 50.087 163.057 50.087H178.308C178.725 50.087 179.143 49.9826 179.561 49.5652L182.173 46.9565C182.59 46.5391 182.695 46.1217 182.695 45.7044V8.13914C182.695 7.6174 182.59 7.20001 182.173 6.88696Z" fill="white"/>
<path d="M128.377 8.13904C128.377 7.6173 128.273 7.19991 127.855 6.88687L121.274 0.208606C120.752 -0.208786 120.125 0.104258 120.125 0.730345V36.7303C120.125 37.3564 120.438 37.8782 120.752 38.2956L131.929 49.4608C132.347 49.8782 132.869 50.0869 133.496 50.0869H150C150.418 50.0869 150.835 49.9825 151.253 49.5651L153.969 46.8521C154.387 46.4347 154.491 46.0173 154.491 45.5999V42.4695H128.377V8.13904Z" fill="white"/>
<path d="M11.2425 68.6289L8.93982 60.752H6.90804L4.60536 68.6289L2.20109 60.752H0L3.40323 71.7698H5.62125L7.92393 64.0737L10.2266 71.7698H12.4446L15.8479 60.752H13.6468L11.2425 68.6289Z" fill="white"/>
<path d="M22.2682 72C25.8577 72 28.2111 69.4182 28.2111 66.2773C28.2111 63.12 25.8746 60.5217 22.2682 60.5217C18.6957 60.5217 16.3422 63.12 16.3422 66.2773C16.3422 69.4182 18.7126 72 22.2682 72ZM22.2682 70.076C19.8978 70.076 18.3909 68.3164 18.3909 66.2609C18.3909 64.1889 19.9147 62.4457 22.2682 62.4457C24.6555 62.4457 26.1624 64.1889 26.1624 66.2609C26.1624 68.3164 24.6725 70.076 22.2682 70.076Z" fill="white"/>
<path d="M30.1625 71.7698H38.2727V69.8458H32.1943V60.752H30.1625V71.7698Z" fill="white"/>
<path d="M48.3179 60.752H39.8353V71.7698H41.867V67.2475H47.7592V65.3893H41.867V62.676H48.3179V60.752Z" fill="white"/>
<path d="M54.3857 71.7533H59.0588C62.3774 71.7533 64.7647 69.4346 64.7647 66.2773V66.228C64.7647 63.0706 62.3774 60.752 59.0588 60.752H54.3857V71.7533ZM59.025 62.676C61.1753 62.676 62.716 64.1231 62.716 66.228V66.2773C62.716 68.3822 61.1753 69.8458 59.025 69.8458H56.4175V62.676H59.025Z" fill="white"/>
<path d="M66.7206 71.7698H68.7524V60.752H66.7206V71.7698Z" fill="white"/>
<path d="M76.4994 65.8169V67.6586H80.1905C79.7503 69.1058 78.4296 70.076 76.601 70.0595C74.2645 70.0431 72.7237 68.3164 72.7237 66.228C72.7237 64.2053 74.1967 62.4622 76.5502 62.4457C78.1926 62.4457 79.4455 63.3173 79.9535 64.4684H82.2053C81.5281 62.1662 79.3947 60.5217 76.5672 60.5217C72.9946 60.5217 70.675 63.12 70.675 66.2773C70.675 69.4346 73.0454 72 76.5502 72C80.1397 72 82.5778 69.4018 82.4424 65.8169H76.4994Z" fill="white"/>
<path d="M84.3465 71.7698H86.3783V60.752H84.3465V71.7698Z" fill="white"/>
<path d="M88.0647 60.752V62.676H92.0097V71.7698H94.0246V62.676H97.9696V60.752H88.0647Z" fill="white"/>
<path d="M108.825 71.7698L104.034 60.752H101.799L97.0241 71.7698H99.259L100.36 69.1222H105.422L106.54 71.7698H108.825ZM102.865 63.0871L104.66 67.3298H101.105L102.865 63.0871Z" fill="white"/>
<path d="M110.174 71.7698H118.284V69.8458H112.205V60.752H110.174V71.7698Z" fill="white"/>
<path d="M134.078 68.6289L131.776 60.752H129.744L127.441 68.6289L125.037 60.752H122.836L126.239 71.7698H128.457L130.76 64.0737L133.062 71.7698H135.28L138.684 60.752H136.483L134.078 68.6289Z" fill="white"/>
<path d="M145.104 72C148.693 72 151.047 69.4182 151.047 66.2773C151.047 63.12 148.71 60.5217 145.104 60.5217C141.531 60.5217 139.178 63.12 139.178 66.2773C139.178 69.4182 141.548 72 145.104 72ZM145.104 70.076C142.734 70.076 141.227 68.3164 141.227 66.2609C141.227 64.1889 142.751 62.4457 145.104 62.4457C147.491 62.4457 148.998 64.1889 148.998 66.2609C148.998 68.3164 147.508 70.076 145.104 70.076Z" fill="white"/>
<path d="M155.03 71.7698V67.8231H159.957C160.465 67.8231 160.736 68.0533 160.736 68.5138V71.7698H162.768V68.1355C162.768 67.0502 162.328 66.3924 161.43 66.1786V66.1293C162.141 65.636 162.548 64.8631 162.548 63.8271C162.548 61.8537 160.956 60.752 158.755 60.752H152.998V71.7698H155.03ZM155.03 62.676H158.62C159.686 62.676 160.516 63.3173 160.516 64.3204C160.516 65.3564 159.72 65.9813 158.62 65.9813H155.03V62.676Z" fill="white"/>
<path d="M164.837 71.7698H172.947V69.8458H166.869V60.752H164.837V71.7698Z" fill="white"/>
<path d="M174.51 71.7533H179.183C182.502 71.7533 184.889 69.4346 184.889 66.2773V66.228C184.889 63.0706 182.502 60.752 179.183 60.752H174.51V71.7533ZM179.149 62.676C181.299 62.676 182.84 64.1231 182.84 66.228V66.2773C182.84 68.3822 181.299 69.8458 179.149 69.8458H176.542V62.676H179.149Z" fill="white"/>
<path fill-rule="evenodd" clip-rule="evenodd" d="M80.8496 6.76733L74.2688 0.193366C73.851 -0.223924 73.1198 0.0890434 73.1198 0.610783V40.6804C73.1198 41.0978 73.2242 41.5152 73.642 41.9325L81.3719 49.6543V8.01945C81.3719 7.49771 81.1629 7.08042 80.8496 6.76733ZM101.323 7.72164H83.2416C82.5902 7.72164 82.2639 6.93496 82.7245 6.47474L88.5794 0.626068C88.9972 0.208651 89.415 6.39797e-06 89.9373 6.39797e-06H105.188C105.606 6.39797e-06 106.024 0.104329 106.442 0.521746L109.053 3.13044C109.471 3.54773 109.575 3.96515 109.575 4.38256V8.09422V41.9478V45.6594C109.575 46.0769 109.471 46.4943 109.053 46.9116L106.442 49.5203C106.024 49.9377 105.606 50.042 105.188 50.042H89.9373C89.415 50.042 88.9972 49.8334 88.5794 49.4159L81.4763 42.3204H101.323V7.72164Z" fill="white"/>
</svg>
