<svg xmlns="http://www.w3.org/2000/svg" width="252" height="102" viewBox="0 0 252 102">
    <defs>
        <style>
            .cls-3{fill:#3375bb}
        </style>
    </defs>
    <g id="Component_29_46" data-name="Component 29 – 46" transform="translate(1 1)">
        <g id="Component_5_1" data-name="Component 5 – 1">
            <g id="NoPath_-_Copy_2_" data-name="NoPath - Copy (2)">
                <rect id="NoPath_-_Copy_2_2" data-name="NoPath - Copy (2)" width="250" height="100" rx="27" style="stroke:#d3d4d6;stroke-width:2px;fill:#fff"/>
                <g id="Canvas" transform="translate(27.784 -4.19)">
                    <g id="logo_solid_side" data-name="logo solid side" transform="translate(9.942 17.497)">
                        <g id="logo_solid_white" data-name="logo solid white">
                            <path id="path0_fill" data-name="path0 fill" d="M33.167 15.016c11.332 8.837 24.327 8.292 28.04 8.292-.811 50.261-7 43.565-28.04 57.658-21.04-14.091-27.191-7.4-28-57.658 3.671 0 16.668.545 28-8.292z" transform="translate(-1.105 -10.962)" style="fill:#fff"/>
                            <path id="path1_stroke" data-name="path1 stroke" class="cls-3" d="m36.537 17.12 1.71-2.21a2.8 2.8 0 0 0-3.42 0zm29.3 8.609 2.8.046a2.8 2.8 0 0 0-2.8-2.84zm-29.3 59.863-1.548 2.327a2.791 2.791 0 0 0 3.1 0zM7.278 25.729v-2.795a2.8 2.8 0 0 0-2.795 2.84zm27.55-6.4c12.686 9.829 27.2 9.2 31.015 9.2v-5.595c-3.944 0-16.593.5-27.591-8.024zm28.22 6.354c-.209 12.984-.76 22.144-1.811 28.929-1.037 6.715-2.523 10.737-4.437 13.564-1.936 2.935-4.37 4.678-7.963 6.829-3.631 2.174-8.215 4.516-13.849 8.259l3.1 4.655c5.36-3.572 9.829-5.848 13.623-8.117 3.825-2.293 7.188-4.816 9.724-8.495 2.561-3.789 4.226-8.725 5.32-15.84 1.087-7.045 1.664-16.585 1.879-29.693zM38.086 83.264C32.452 79.521 27.87 77.184 24.244 75c-3.595-2.149-6.019-3.891-7.949-6.827-1.9-2.825-3.386-6.84-4.421-13.564-1.049-6.787-1.6-15.946-1.807-28.931l-5.59.091c.215 13.11.788 22.648 1.871 29.691 1.1 7.115 2.757 12.052 5.32 15.84 2.529 3.678 5.89 6.2 9.711 8.5 3.789 2.267 8.255 4.545 13.617 8.117zM7.272 28.525c3.775 0 18.291.633 30.97-9.2l-3.42-4.419c-11 8.521-23.649 8.024-27.55 8.024z" transform="translate(-4.477 -14.326)"/>
                        </g>
                        <g id="labels" transform="translate(74.285 10.03)">
                            <g id="TRUST">
                                <path id="path2_fill" data-name="path2 fill" class="cls-3" d="M41.258 23.528h-7.017v22.234h-4.723V23.528h-6.926v-4.453h18.666zm11.194 12.479H48.69v9.769h-4.723v-26.7h8.523a8.7 8.7 0 0 1 6.265 2.107 7.863 7.863 0 0 1 2.2 5.958 9.264 9.264 0 0 1-1.019 4.559 7.2 7.2 0 0 1-3.078 2.9l4.958 10.9v.256h-5.067zm-3.762-4.455h3.81a3.582 3.582 0 0 0 2.753-1.045 4.106 4.106 0 0 0 .975-2.914 4.417 4.417 0 0 0-.928-2.969 3.5 3.5 0 0 0-2.817-1.081h-3.788zM81.9 19.089v17.577a9.777 9.777 0 0 1-2.368 6.929 8.339 8.339 0 0 1-6.421 2.548 8.364 8.364 0 0 1-6.376-2.481 9.684 9.684 0 0 1-2.408-6.8V19.075h4.723v17.616a5.7 5.7 0 0 0 1.068 3.83 3.728 3.728 0 0 0 2.993 1.191q3.98 0 4.044-4.875V19.075zm15.756 19.675a3 3 0 0 0-.947-2.385 11.912 11.912 0 0 0-3.4-1.759 22.572 22.572 0 0 1-3.888-1.834 7.5 7.5 0 0 1-3.9-6.617 7.2 7.2 0 0 1 1.039-3.86 7.089 7.089 0 0 1 3.007-2.658 9.992 9.992 0 0 1 4.406-.951 9 9 0 0 1 4.378 1.045 7.25 7.25 0 0 1 2.974 2.914 8.525 8.525 0 0 1 1.07 4.287h-4.723a3.873 3.873 0 0 0-.992-2.84 3.8 3.8 0 0 0-2.787-1.026 3.9 3.9 0 0 0-2.692.86 2.832 2.832 0 0 0-.959 2.236 2.676 2.676 0 0 0 1.117 2.181 11.806 11.806 0 0 0 3.315 1.654 13.8 13.8 0 0 1 5.869 3.5 7.591 7.591 0 0 1 1.842 5.206 6.878 6.878 0 0 1-2.249 5.445 8.775 8.775 0 0 1-6.061 1.96 10.358 10.358 0 0 1-4.816-1.1 8.091 8.091 0 0 1-3.315-3.1 8.935 8.935 0 0 1-1.125-4.555h4.735q0 4.411 4.534 4.412a3.983 3.983 0 0 0 2.628-.789 2.788 2.788 0 0 0 .938-2.225zm25.2-15.234h-7.02v22.235H111.1V23.528h-6.913v-4.453h18.668z" transform="translate(-22.592 -18.698)"/>
                            </g>
                            <g id="WALLET" transform="translate(4.125 33.151)">
                                <path id="path3_fill" data-name="path3 fill" d="m28.059 40.073.546 3.237.668-3.091 3.832-15.366h1.347l3.784 15.367.656 3.121.581-3.265 3.19-15.223h1.527L39.667 45.7h-1.431l-3.993-16.311-.467-2.062-.437 2.062L29.238 45.7h-1.429l-4.514-20.85h1.53zm28.007-.215h-8.017L46.23 45.7h-1.565l6.684-20.85h1.418L59.45 45.7H57.9zm-7.557-1.5h7.083L52.051 27zm15.053 5.856h8.72V45.7H62.058V24.851h1.5zm13.1 0h8.725V45.7h-10.23V24.851h1.5zm21.347-8.506h-8.26v8.506h9.5V45.7H88.257V24.851h10.927v1.5h-9.437v7.864h8.26zm16.618-9.352h-6.053V45.7h-1.494V26.354h-6.048v-1.5h13.584z" transform="translate(-23.295 -24.851)" style="fill:#2e91db"/>
                            </g>
                        </g>
                    </g>
                </g>
            </g>
        </g>
    </g>
</svg>
